<?xml version="1.0" encoding="UTF-8" standalone="no"?>
<!DOCTYPE svg PUBLIC "-//W3C//DTD SVG 1.1//EN"
 "http://www.w3.org/Graphics/SVG/1.1/DTD/svg11.dtd">
<!-- Generated by graphviz version 14.1.2 (0)
 -->
<!-- Title: /home/runner/work/kynema&#45;sgf/kynema&#45;sgf/src/equation_systems/tke/TKE.H Pages: 1 -->
<svg width="1021pt" height="219pt"
 viewBox="0.00 0.00 1021.00 219.00" xmlns="http://www.w3.org/2000/svg" xmlns:xlink="http://www.w3.org/1999/xlink">
<g id="graph0" class="graph" transform="scale(1 1) rotate(0) translate(4 214.75)">
<title>/home/runner/work/kynema&#45;sgf/kynema&#45;sgf/src/equation_systems/tke/TKE.H</title>
<!-- Node1 -->
<g id="Node000001" class="node">
<title>Node1</title>
<g id="a_Node000001"><a xlink:title=" ">
<polygon fill="#999999" stroke="#666666" points="634.5,-210.75 476,-210.75 476,-164.5 634.5,-164.5 634.5,-210.75"/>
<text xml:space="preserve" text-anchor="start" x="484" y="-197.25" font-family="Helvetica,sans-Serif" font-size="10.00">/home/runner/work/kynema</text>
<text xml:space="preserve" text-anchor="start" x="484" y="-184.5" font-family="Helvetica,sans-Serif" font-size="10.00">&#45;sgf/kynema&#45;sgf/src/equation</text>
<text xml:space="preserve" text-anchor="middle" x="555.25" y="-171.75" font-family="Helvetica,sans-Serif" font-size="10.00">_systems/tke/TKE.H</text>
</a>
</g>
</g>
<!-- Node2 -->
<g id="Node000002" class="node">
<title>Node2</title>
<g id="a_Node000002"><a xlink:href="_t_k_e_8cpp.html" target="_top" xlink:title=" ">
<polygon fill="white" stroke="#666666" points="158.5,-46.25 0,-46.25 0,0 158.5,0 158.5,-46.25"/>
<text xml:space="preserve" text-anchor="start" x="8" y="-32.75" font-family="Helvetica,sans-Serif" font-size="10.00">/home/runner/work/kynema</text>
<text xml:space="preserve" text-anchor="start" x="8" y="-20" font-family="Helvetica,sans-Serif" font-size="10.00">&#45;sgf/kynema&#45;sgf/src/equation</text>
<text xml:space="preserve" text-anchor="middle" x="79.25" y="-7.25" font-family="Helvetica,sans-Serif" font-size="10.00">_systems/tke/TKE.cpp</text>
</a>
</g>
</g>
<!-- Node1&#45;&gt;Node2 -->
<g id="edge1_Node000001_Node000002" class="edge">
<title>Node1&#45;&gt;Node2</title>
<g id="a_edge1_Node000001_Node000002"><a xlink:title=" ">
<path fill="none" stroke="#63b8ff" d="M464.21,-182.74C324.83,-175.84 71.67,-159.21 44.25,-128.5 23.63,-105.4 43.12,-69.74 60.22,-46.67"/>
<polygon fill="#63b8ff" stroke="#63b8ff" points="464.02,-186.23 474.18,-183.22 464.36,-179.24 464.02,-186.23"/>
</a>
</g>
</g>
<!-- Node3 -->
<g id="Node000003" class="node">
<title>Node3</title>
<g id="a_Node000003"><a xlink:href="tke__ops_8_h.html" target="_top" xlink:title=" ">
<polygon fill="white" stroke="#666666" points="211.5,-128.5 53,-128.5 53,-82.25 211.5,-82.25 211.5,-128.5"/>
<text xml:space="preserve" text-anchor="start" x="61" y="-115" font-family="Helvetica,sans-Serif" font-size="10.00">/home/runner/work/kynema</text>
<text xml:space="preserve" text-anchor="start" x="61" y="-102.25" font-family="Helvetica,sans-Serif" font-size="10.00">&#45;sgf/kynema&#45;sgf/src/equation</text>
<text xml:space="preserve" text-anchor="middle" x="132.25" y="-89.5" font-family="Helvetica,sans-Serif" font-size="10.00">_systems/tke/tke_ops.H</text>
</a>
</g>
</g>
<!-- Node1&#45;&gt;Node3 -->
<g id="edge2_Node000001_Node000003" class="edge">
<title>Node1&#45;&gt;Node3</title>
<g id="a_edge2_Node000001_Node000003"><a xlink:title=" ">
<path fill="none" stroke="#63b8ff" d="M464.7,-172.79C397.1,-162 302.57,-145.96 220.25,-128.5 217.48,-127.91 214.66,-127.3 211.81,-126.66"/>
<polygon fill="#63b8ff" stroke="#63b8ff" points="463.82,-176.19 474.24,-174.3 464.92,-169.28 463.82,-176.19"/>
</a>
</g>
</g>
<!-- Node4 -->
<g id="Node000004" class="node">
<title>Node4</title>
<g id="a_Node000004"><a xlink:href="_one_eq_ksgs_8cpp.html" target="_top" xlink:title=" ">
<polygon fill="white" stroke="#666666" points="397,-128.5 229.5,-128.5 229.5,-82.25 397,-82.25 397,-128.5"/>
<text xml:space="preserve" text-anchor="start" x="237.5" y="-115" font-family="Helvetica,sans-Serif" font-size="10.00">/home/runner/work/kynema</text>
<text xml:space="preserve" text-anchor="start" x="237.5" y="-102.25" font-family="Helvetica,sans-Serif" font-size="10.00">&#45;sgf/kynema&#45;sgf/src/turbulence</text>
<text xml:space="preserve" text-anchor="middle" x="313.25" y="-89.5" font-family="Helvetica,sans-Serif" font-size="10.00">/LES/OneEqKsgs.cpp</text>
</a>
</g>
</g>
<!-- Node1&#45;&gt;Node4 -->
<g id="edge4_Node000001_Node000004" class="edge">
<title>Node1&#45;&gt;Node4</title>
<g id="a_edge4_Node000001_Node000004"><a xlink:title=" ">
<path fill="none" stroke="#63b8ff" d="M476.51,-160.51C445.76,-150.32 410.84,-138.74 381.21,-128.91"/>
<polygon fill="#63b8ff" stroke="#63b8ff" points="475.17,-163.76 485.76,-163.58 477.37,-157.11 475.17,-163.76"/>
</a>
</g>
</g>
<!-- Node5 -->
<g id="Node000005" class="node">
<title>Node5</title>
<g id="a_Node000005"><a xlink:href="_k_l_axell_8cpp.html" target="_top" xlink:title=" ">
<polygon fill="white" stroke="#666666" points="583,-128.5 415.5,-128.5 415.5,-82.25 583,-82.25 583,-128.5"/>
<text xml:space="preserve" text-anchor="start" x="423.5" y="-115" font-family="Helvetica,sans-Serif" font-size="10.00">/home/runner/work/kynema</text>
<text xml:space="preserve" text-anchor="start" x="423.5" y="-102.25" font-family="Helvetica,sans-Serif" font-size="10.00">&#45;sgf/kynema&#45;sgf/src/turbulence</text>
<text xml:space="preserve" text-anchor="middle" x="499.25" y="-89.5" font-family="Helvetica,sans-Serif" font-size="10.00">/RANS/KLAxell.cpp</text>
</a>
</g>
</g>
<!-- Node1&#45;&gt;Node5 -->
<g id="edge5_Node000001_Node000005" class="edge">
<title>Node1&#45;&gt;Node5</title>
<g id="a_edge5_Node000001_Node000005"><a xlink:title=" ">
<path fill="none" stroke="#63b8ff" d="M533.24,-155.08C527.13,-146.33 520.63,-137.01 514.96,-128.89"/>
<polygon fill="#63b8ff" stroke="#63b8ff" points="530.19,-156.83 538.78,-163.03 535.93,-152.83 530.19,-156.83"/>
</a>
</g>
</g>
<!-- Node6 -->
<g id="Node000006" class="node">
<title>Node6</title>
<g id="a_Node000006"><a xlink:href="_k_omega_s_s_t_8cpp.html" target="_top" xlink:title=" ">
<polygon fill="white" stroke="#666666" points="704,-46.25 536.5,-46.25 536.5,0 704,0 704,-46.25"/>
<text xml:space="preserve" text-anchor="start" x="544.5" y="-32.75" font-family="Helvetica,sans-Serif" font-size="10.00">/home/runner/work/kynema</text>
<text xml:space="preserve" text-anchor="start" x="544.5" y="-20" font-family="Helvetica,sans-Serif" font-size="10.00">&#45;sgf/kynema&#45;sgf/src/turbulence</text>
<text xml:space="preserve" text-anchor="middle" x="620.25" y="-7.25" font-family="Helvetica,sans-Serif" font-size="10.00">/RANS/KOmegaSST.cpp</text>
</a>
</g>
</g>
<!-- Node1&#45;&gt;Node6 -->
<g id="edge6_Node000001_Node000006" class="edge">
<title>Node1&#45;&gt;Node6</title>
<g id="a_edge6_Node000001_Node000006"><a xlink:title=" ">
<path fill="none" stroke="#63b8ff" d="M578.14,-154.5C583.3,-146.3 588.38,-137.3 592.25,-128.5 604.19,-101.37 612.06,-67.97 616.33,-46.37"/>
<polygon fill="#63b8ff" stroke="#63b8ff" points="575.26,-152.51 572.72,-162.79 581.12,-156.34 575.26,-152.51"/>
</a>
</g>
</g>
<!-- Node7 -->
<g id="Node000007" class="node">
<title>Node7</title>
<g id="a_Node000007"><a xlink:href="_k_omega_s_s_t_i_8_h.html" target="_top" xlink:title=" ">
<polygon fill="white" stroke="#666666" points="807,-128.5 639.5,-128.5 639.5,-82.25 807,-82.25 807,-128.5"/>
<text xml:space="preserve" text-anchor="start" x="647.5" y="-115" font-family="Helvetica,sans-Serif" font-size="10.00">/home/runner/work/kynema</text>
<text xml:space="preserve" text-anchor="start" x="647.5" y="-102.25" font-family="Helvetica,sans-Serif" font-size="10.00">&#45;sgf/kynema&#45;sgf/src/turbulence</text>
<text xml:space="preserve" text-anchor="middle" x="723.25" y="-89.5" font-family="Helvetica,sans-Serif" font-size="10.00">/RANS/KOmegaSSTI.H</text>
</a>
</g>
</g>
<!-- Node1&#45;&gt;Node7 -->
<g id="edge7_Node000001_Node000007" class="edge">
<title>Node1&#45;&gt;Node7</title>
<g id="a_edge7_Node000001_Node000007"><a xlink:title=" ">
<path fill="none" stroke="#63b8ff" d="M612.73,-159.17C633.37,-149.31 656.4,-138.31 676.07,-128.91"/>
<polygon fill="#63b8ff" stroke="#63b8ff" points="611.37,-155.94 603.86,-163.4 614.39,-162.25 611.37,-155.94"/>
</a>
</g>
</g>
<!-- Node8 -->
<g id="Node000008" class="node">
<title>Node8</title>
<g id="a_Node000008"><a xlink:href="_k_omega_s_s_t_i_d_d_e_s_8cpp.html" target="_top" xlink:title=" ">
<polygon fill="white" stroke="#666666" points="909,-46.25 741.5,-46.25 741.5,0 909,0 909,-46.25"/>
<text xml:space="preserve" text-anchor="start" x="749.5" y="-32.75" font-family="Helvetica,sans-Serif" font-size="10.00">/home/runner/work/kynema</text>
<text xml:space="preserve" text-anchor="start" x="749.5" y="-20" font-family="Helvetica,sans-Serif" font-size="10.00">&#45;sgf/kynema&#45;sgf/src/turbulence</text>
<text xml:space="preserve" text-anchor="middle" x="825.25" y="-7.25" font-family="Helvetica,sans-Serif" font-size="10.00">/RANS/KOmegaSSTIDDES.cpp</text>
</a>
</g>
</g>
<!-- Node1&#45;&gt;Node8 -->
<g id="edge10_Node000001_Node000008" class="edge">
<title>Node1&#45;&gt;Node8</title>
<g id="a_edge10_Node000001_Node000008"><a xlink:title=" ">
<path fill="none" stroke="#63b8ff" d="M646.3,-177.75C712.39,-169.28 793.96,-153.97 816.25,-128.5 835.77,-106.19 834.08,-69.98 830.28,-46.61"/>
<polygon fill="#63b8ff" stroke="#63b8ff" points="645.99,-174.26 636.5,-178.96 646.85,-181.2 645.99,-174.26"/>
</a>
</g>
</g>
<!-- Node9 -->
<g id="Node000009" class="node">
<title>Node9</title>
<g id="a_Node000009"><a xlink:href="_a_b_l_stats_8cpp.html" target="_top" xlink:title=" ">
<polygon fill="white" stroke="#666666" points="1013.38,-128.5 863.12,-128.5 863.12,-82.25 1013.38,-82.25 1013.38,-128.5"/>
<text xml:space="preserve" text-anchor="start" x="871.12" y="-115" font-family="Helvetica,sans-Serif" font-size="10.00">/home/runner/work/kynema</text>
<text xml:space="preserve" text-anchor="start" x="871.12" y="-102.25" font-family="Helvetica,sans-Serif" font-size="10.00">&#45;sgf/kynema&#45;sgf/src/wind</text>
<text xml:space="preserve" text-anchor="middle" x="938.25" y="-89.5" font-family="Helvetica,sans-Serif" font-size="10.00">_energy/ABLStats.cpp</text>
</a>
</g>
</g>
<!-- Node1&#45;&gt;Node9 -->
<g id="edge11_Node000001_Node000009" class="edge">
<title>Node1&#45;&gt;Node9</title>
<g id="a_edge11_Node000001_Node000009"><a xlink:title=" ">
<path fill="none" stroke="#63b8ff" d="M645.73,-169.91C703.99,-158.86 781.27,-143.66 849.25,-128.5 853.76,-127.49 858.38,-126.43 863.05,-125.34"/>
<polygon fill="#63b8ff" stroke="#63b8ff" points="645.37,-166.42 636.19,-171.72 646.67,-173.3 645.37,-166.42"/>
</a>
</g>
</g>
<!-- Node3&#45;&gt;Node2 -->
<g id="edge3_Node000003_Node000002" class="edge">
<title>Node3&#45;&gt;Node2</title>
<g id="a_edge3_Node000003_Node000002"><a xlink:title=" ">
<path fill="none" stroke="#63b8ff" d="M111.23,-72.55C105.51,-63.88 99.42,-54.67 94.12,-46.64"/>
<polygon fill="#63b8ff" stroke="#63b8ff" points="108.22,-74.34 116.65,-80.76 114.06,-70.48 108.22,-74.34"/>
</a>
</g>
</g>
<!-- Node7&#45;&gt;Node6 -->
<g id="edge8_Node000007_Node000006" class="edge">
<title>Node7&#45;&gt;Node6</title>
<g id="a_edge8_Node000007_Node000006"><a xlink:title=" ">
<path fill="none" stroke="#63b8ff" d="M685.35,-74.85C673.34,-65.49 660.26,-55.3 649,-46.52"/>
<polygon fill="#63b8ff" stroke="#63b8ff" points="683.05,-77.49 693.09,-80.88 687.35,-71.97 683.05,-77.49"/>
</a>
</g>
</g>
<!-- Node7&#45;&gt;Node8 -->
<g id="edge9_Node000007_Node000008" class="edge">
<title>Node7&#45;&gt;Node8</title>
<g id="a_edge9_Node000007_Node000008"><a xlink:title=" ">
<path fill="none" stroke="#63b8ff" d="M760.78,-74.85C772.68,-65.49 785.63,-55.3 796.78,-46.52"/>
<polygon fill="#63b8ff" stroke="#63b8ff" points="758.82,-71.94 753.12,-80.87 763.15,-77.44 758.82,-71.94"/>
</a>
</g>
</g>
</g>
</svg>
