<?xml version="1.0" encoding="UTF-8" standalone="no"?>
<!DOCTYPE svg PUBLIC "-//W3C//DTD SVG 1.1//EN"
 "http://www.w3.org/Graphics/SVG/1.1/DTD/svg11.dtd">
<!-- Generated by graphviz version 14.1.2 (0)
 -->
<!-- Title: incflo::Evolve Pages: 1 -->
<svg width="282pt" height="301pt"
 viewBox="0.00 0.00 282.00 301.00" xmlns="http://www.w3.org/2000/svg" xmlns:xlink="http://www.w3.org/1999/xlink">
<g id="graph0" class="graph" transform="scale(1 1) rotate(0) translate(4 297.12)">
<title>incflo::Evolve</title>
<!-- Node1 -->
<g id="Node000001" class="node">
<title>Node1</title>
<g id="a_Node000001"><a xlink:title=" ">
<polygon fill="#999999" stroke="#666666" points="81.25,-176.12 0,-176.12 0,-155.38 81.25,-155.38 81.25,-176.12"/>
<text xml:space="preserve" text-anchor="middle" x="40.62" y="-162.62" font-family="Helvetica,sans-Serif" font-size="10.00">incflo::Evolve</text>
</a>
</g>
</g>
<!-- Node2 -->
<g id="Node000002" class="node">
<title>Node2</title>
<g id="a_Node000002"><a xlink:href="classincflo.html#af9c3bbbf6d6e7b73f8255de42b26e96a" target="_top" xlink:title=" ">
<polygon fill="white" stroke="#666666" points="248.38,-293.12 142.38,-293.12 142.38,-272.38 248.38,-272.38 248.38,-293.12"/>
<text xml:space="preserve" text-anchor="middle" x="195.38" y="-279.62" font-family="Helvetica,sans-Serif" font-size="10.00">incflo::compute_dt</text>
</a>
</g>
</g>
<!-- Node1&#45;&gt;Node2 -->
<g id="edge1_Node000001_Node000002" class="edge">
<title>Node1&#45;&gt;Node2</title>
<g id="a_edge1_Node000001_Node000002"><a xlink:title=" ">
<path fill="none" stroke="#63b8ff" d="M46.85,-176.37C57.31,-196.48 82.8,-240.12 117.25,-262.75 121.71,-265.68 126.58,-268.18 131.63,-270.32"/>
<polygon fill="#63b8ff" stroke="#63b8ff" points="130.18,-273.51 140.77,-273.68 132.6,-266.94 130.18,-273.51"/>
</a>
</g>
</g>
<!-- Node3 -->
<g id="Node000003" class="node">
<title>Node3</title>
<g id="a_Node000003"><a xlink:href="classincflo.html#a9b8033a0488fb4d9bbdff59a7c6f02b0" target="_top" xlink:title=" ">
<polygon fill="white" stroke="#666666" points="273.5,-254.12 117.25,-254.12 117.25,-233.38 273.5,-233.38 273.5,-254.12"/>
<text xml:space="preserve" text-anchor="middle" x="195.38" y="-240.62" font-family="Helvetica,sans-Serif" font-size="10.00">incflo::compute_prescribe_dt</text>
</a>
</g>
</g>
<!-- Node1&#45;&gt;Node3 -->
<g id="edge2_Node000001_Node000003" class="edge">
<title>Node1&#45;&gt;Node3</title>
<g id="a_edge2_Node000001_Node000003"><a xlink:title=" ">
<path fill="none" stroke="#63b8ff" d="M52.45,-176.35C66.33,-189.38 91.67,-211.27 117.25,-223.75 121.45,-225.8 125.88,-227.65 130.4,-229.33"/>
<polygon fill="#63b8ff" stroke="#63b8ff" points="129.06,-232.57 139.66,-232.45 131.3,-225.94 129.06,-232.57"/>
</a>
</g>
</g>
<!-- Node4 -->
<g id="Node000004" class="node">
<title>Node4</title>
<g id="a_Node000004"><a xlink:href="classincflo.html#a47265864f920f89b06d7a462c761e8c4" target="_top" xlink:title=" ">
<polygon fill="white" stroke="#666666" points="248.75,-215.12 142,-215.12 142,-194.38 248.75,-194.38 248.75,-215.12"/>
<text xml:space="preserve" text-anchor="middle" x="195.38" y="-201.62" font-family="Helvetica,sans-Serif" font-size="10.00">incflo::do_advance</text>
</a>
</g>
</g>
<!-- Node1&#45;&gt;Node4 -->
<g id="edge3_Node000001_Node000004" class="edge">
<title>Node1&#45;&gt;Node4</title>
<g id="a_edge3_Node000001_Node000004"><a xlink:title=" ">
<path fill="none" stroke="#63b8ff" d="M81.36,-175.89C99.55,-180.54 121.37,-186.11 140.97,-191.11"/>
<polygon fill="#63b8ff" stroke="#63b8ff" points="139.87,-194.45 150.43,-193.53 141.61,-187.66 139.87,-194.45"/>
</a>
</g>
</g>
<!-- Node5 -->
<g id="Node000005" class="node">
<title>Node5</title>
<g id="a_Node000005"><a xlink:href="classincflo.html#a339cc34ea0a08de4eaff982226dab8bf" target="_top" xlink:title=" ">
<polygon fill="white" stroke="#666666" points="267.88,-176.12 122.88,-176.12 122.88,-155.38 267.88,-155.38 267.88,-176.12"/>
<text xml:space="preserve" text-anchor="middle" x="195.38" y="-162.62" font-family="Helvetica,sans-Serif" font-size="10.00">incflo::post_advance_work</text>
</a>
</g>
</g>
<!-- Node1&#45;&gt;Node5 -->
<g id="edge4_Node000001_Node000005" class="edge">
<title>Node1&#45;&gt;Node5</title>
<g id="a_edge4_Node000001_Node000005"><a xlink:title=" ">
<path fill="none" stroke="#63b8ff" d="M81.36,-165.75C90.64,-165.75 100.87,-165.75 111.27,-165.75"/>
<polygon fill="#63b8ff" stroke="#63b8ff" points="111.07,-169.25 121.07,-165.75 111.07,-162.25 111.07,-169.25"/>
</a>
</g>
</g>
<!-- Node6 -->
<g id="Node000006" class="node">
<title>Node6</title>
<g id="a_Node000006"><a xlink:href="classincflo.html#a171fd353adf62e83b0e65a20fd27e567" target="_top" xlink:title=" ">
<polygon fill="white" stroke="#666666" points="250.62,-137.5 140.12,-137.5 140.12,-104 250.62,-104 250.62,-137.5"/>
<text xml:space="preserve" text-anchor="start" x="148.12" y="-124" font-family="Helvetica,sans-Serif" font-size="10.00">incflo::pre_advance</text>
<text xml:space="preserve" text-anchor="middle" x="195.38" y="-111.25" font-family="Helvetica,sans-Serif" font-size="10.00">_stage1</text>
</a>
</g>
</g>
<!-- Node1&#45;&gt;Node6 -->
<g id="edge5_Node000001_Node000006" class="edge">
<title>Node1&#45;&gt;Node6</title>
<g id="a_edge5_Node000001_Node000006"><a xlink:title=" ">
<path fill="none" stroke="#63b8ff" d="M78.21,-154.97C93.49,-150.47 111.71,-145.1 129.14,-139.97"/>
<polygon fill="#63b8ff" stroke="#63b8ff" points="129.8,-143.42 138.41,-137.24 127.83,-136.71 129.8,-143.42"/>
</a>
</g>
</g>
<!-- Node7 -->
<g id="Node000007" class="node">
<title>Node7</title>
<g id="a_Node000007"><a xlink:href="classincflo.html#ae9108a8fa888740a724bd6c2384f5bae" target="_top" xlink:title=" ">
<polygon fill="white" stroke="#666666" points="250.62,-85.5 140.12,-85.5 140.12,-52 250.62,-52 250.62,-85.5"/>
<text xml:space="preserve" text-anchor="start" x="148.12" y="-72" font-family="Helvetica,sans-Serif" font-size="10.00">incflo::pre_advance</text>
<text xml:space="preserve" text-anchor="middle" x="195.38" y="-59.25" font-family="Helvetica,sans-Serif" font-size="10.00">_stage2</text>
</a>
</g>
</g>
<!-- Node1&#45;&gt;Node7 -->
<g id="edge6_Node000001_Node000007" class="edge">
<title>Node1&#45;&gt;Node7</title>
<g id="a_edge6_Node000001_Node000007"><a xlink:title=" ">
<path fill="none" stroke="#63b8ff" d="M50.31,-155.1C63.35,-139.74 89.44,-111.4 117.25,-94.75 121.21,-92.38 125.4,-90.19 129.72,-88.18"/>
<polygon fill="#63b8ff" stroke="#63b8ff" points="130.75,-91.55 138.56,-84.39 127.99,-85.12 130.75,-91.55"/>
</a>
</g>
</g>
<!-- Node8 -->
<g id="Node000008" class="node">
<title>Node8</title>
<g id="a_Node000008"><a xlink:href="classincflo.html#ae09184db23dbf56c886e48000c7685d7" target="_top" xlink:title=" ">
<polygon fill="white" stroke="#666666" points="245.38,-33.5 145.38,-33.5 145.38,0 245.38,0 245.38,-33.5"/>
<text xml:space="preserve" text-anchor="start" x="153.38" y="-20" font-family="Helvetica,sans-Serif" font-size="10.00">incflo::regrid_and</text>
<text xml:space="preserve" text-anchor="middle" x="195.38" y="-7.25" font-family="Helvetica,sans-Serif" font-size="10.00">_update</text>
</a>
</g>
</g>
<!-- Node1&#45;&gt;Node8 -->
<g id="edge7_Node000001_Node000008" class="edge">
<title>Node1&#45;&gt;Node8</title>
<g id="a_edge7_Node000001_Node000008"><a xlink:title=" ">
<path fill="none" stroke="#63b8ff" d="M45.27,-155.15C53.93,-131.48 78.03,-73.98 117.25,-42.75 122.62,-38.48 128.73,-34.89 135.1,-31.88"/>
<polygon fill="#63b8ff" stroke="#63b8ff" points="136,-35.3 143.87,-28.2 133.29,-28.84 136,-35.3"/>
</a>
</g>
</g>
</g>
</svg>
