<?xml version="1.0" encoding="UTF-8" standalone="no"?>
<!DOCTYPE svg PUBLIC "-//W3C//DTD SVG 1.1//EN"
 "http://www.w3.org/Graphics/SVG/1.1/DTD/svg11.dtd">
<!-- Generated by graphviz version 14.1.2 (0)
 -->
<!-- Title: kynema_sgf::pde::icns::BoussinesqBuoyancy Pages: 1 -->
<!--zoomable 356 -->

<svg id="main" version="1.1" xmlns="http://www.w3.org/2000/svg" xmlns:xlink="http://www.w3.org/1999/xlink" xml:space="preserve" onload="init(evt)">

<style type="text/css"><![CDATA[
.node, .edge {opacity: 0.7;}
.node.selected, .edge.selected {opacity: 1;}
.edge:hover path { stroke: red; }
.edge:hover polygon { stroke: red; fill: red; }
]]></style>

<defs>
  <circle id="rim" cx="0" cy="0" r="7"/>
  <circle id="rim2" cx="0" cy="0" r="3.5"/>
  <g id="zoomPlus">
    <use xlink:href="#rim" fill="#404040"><set attributeName="fill" to="#808080" begin="zoomplus.mouseover" end="zoomplus.mouseout"/></use>
    <path d="M-4,0h8M0,-4v8" fill="none" stroke="white" stroke-width="1.5" pointer-events="none"/>
  </g>
  <g id="zoomMin">
    <use xlink:href="#rim" fill="#404040"><set attributeName="fill" to="#808080" begin="zoomminus.mouseover" end="zoomminus.mouseout"/></use>
    <path d="M-4,0h8" fill="none" stroke="white" stroke-width="1.5" pointer-events="none"/>
  </g>
  <g id="arrowUp" transform="translate(30 24)">
    <use xlink:href="#rim"/>
    <path pointer-events="none" fill="none" stroke="white" stroke-width="1.5" d="M0,-3.0v7 M-2.5,-0.5L0,-3.0L2.5,-0.5"/>
  </g>
  <g id="arrowRight" transform="rotate(90) translate(36 -43)">
    <use xlink:href="#rim"/>
    <path pointer-events="none" fill="none" stroke="white" stroke-width="1.5" d="M0,-3.0v7 M-2.5,-0.5L0,-3.0L2.5,-0.5"/>
  </g>
  <g id="arrowDown" transform="rotate(180) translate(-30 -48)">
    <use xlink:href="#rim"/>
    <path pointer-events="none" fill="none" stroke="white" stroke-width="1.5" d="M0,-3.0v7 M-2.5,-0.5L0,-3.0L2.5,-0.5"/>
  </g>
  <g id="arrowLeft" transform="rotate(270) translate(-36 17)">
    <use xlink:href="#rim"/>
    <path pointer-events="none" fill="none" stroke="white" stroke-width="1.5" d="M0,-3.0v7 M-2.5,-0.5L0,-3.0L2.5,-0.5"/>
  </g>
  <g id="resetDef">
    <use xlink:href="#rim2" fill="#404040"><set attributeName="fill" to="#808080" begin="reset.mouseover" end="reset.mouseout"/></use>
  </g>
</defs>
<script type="application/ecmascript">
var viewWidth = 1663;
var viewHeight = 356;
var sectionId = 'dynsection-1';
</script>
<script type="application/ecmascript" xlink:href="svg.min.js"/>
<svg id="graph" class="graph">
<g id="viewport">
<title>kynema_sgf::pde::icns::BoussinesqBuoyancy</title>
<!-- Node1 -->
<g id="Node000001" class="node">
<title>Node1</title>
<g id="a_Node000001"><a xlink:title=" ">
<polygon fill="#999999" stroke="#666666" points="1654.5,-142.88 1529,-142.88 1529,-109.38 1654.5,-109.38 1654.5,-142.88"/>
<text xml:space="preserve" text-anchor="start" x="1537" y="-129.38" font-family="Helvetica,sans-Serif" font-size="10.00">kynema_sgf::pde::icns</text>
<text xml:space="preserve" text-anchor="middle" x="1591.75" y="-116.62" font-family="Helvetica,sans-Serif" font-size="10.00">::BoussinesqBuoyancy</text>
</a>
</g>
</g>
<!-- Node2 -->
<g id="Node000002" class="node">
<title>Node2</title>
<g id="a_Node000002"><a xlink:title=" ">
<polygon fill="white" stroke="#666666" points="1387.25,-261.25 1238.5,-261.25 1238.5,-215 1387.25,-215 1387.25,-261.25"/>
<text xml:space="preserve" text-anchor="start" x="1246.5" y="-247.75" font-family="Helvetica,sans-Serif" font-size="10.00">kynema_sgf::Factory</text>
<text xml:space="preserve" text-anchor="start" x="1246.5" y="-235" font-family="Helvetica,sans-Serif" font-size="10.00">&lt; MomentumSource, const</text>
<text xml:space="preserve" text-anchor="middle" x="1312.88" y="-222.25" font-family="Helvetica,sans-Serif" font-size="10.00"> CFDSim &amp; &gt;::Register</text>
</a>
</g>
</g>
<!-- Node2&#45;&gt;Node1 -->
<g id="edge1_Node000001_Node000002" class="edge">
<title>Node2&#45;&gt;Node1</title>
<g id="a_edge1_Node000001_Node000002"><a xlink:title=" ">
<path fill="none" stroke="#63b8ff" d="M1398.73,-232.2C1434.84,-227.09 1476.49,-217.62 1511,-200.12 1538.29,-186.29 1562.98,-160.33 1577.43,-143.13"/>
<polygon fill="#63b8ff" stroke="#63b8ff" points="1398.68,-228.68 1389.22,-233.45 1399.59,-235.62 1398.68,-228.68"/>
</a>
</g>
</g>
<!-- Node3 -->
<g id="Node000003" class="node">
<title>Node3</title>
<g id="a_Node000003"><a xlink:href="classkynema__sgf_1_1_field.html" target="_top" xlink:title=" ">
<polygon fill="white" stroke="#666666" points="1141.75,-144.5 1038,-144.5 1038,-123.75 1141.75,-123.75 1141.75,-144.5"/>
<text xml:space="preserve" text-anchor="middle" x="1089.88" y="-131" font-family="Helvetica,sans-Serif" font-size="10.00">kynema_sgf::Field</text>
</a>
</g>
</g>
<!-- Node3&#45;&gt;Node1 -->
<g id="edge2_Node000001_Node000003" class="edge">
<title>Node3&#45;&gt;Node1</title>
<g id="a_edge2_Node000001_Node000003"><a xlink:title=" ">
<path fill="none" stroke="#9a32cd" stroke-dasharray="5,2" d="M1153.31,-133.13C1249.52,-131.59 1432.9,-128.65 1528.81,-127.12"/>
<polygon fill="#9a32cd" stroke="#9a32cd" points="1153.48,-129.62 1143.53,-133.28 1153.59,-136.62 1153.48,-129.62"/>
</a>
</g>
<text xml:space="preserve" text-anchor="start" x="1275" y="-137.94" font-family="Helvetica,sans-Serif" font-size="10.00" fill="grey">m_temperature</text>
</g>
<!-- Node4 -->
<g id="Node000004" class="node">
<title>Node4</title>
<g id="a_Node000004"><a xlink:href="classkynema__sgf_1_1_field_repo.html" target="_top" xlink:title=" ">
<polygon fill="white" stroke="#666666" points="847.62,-104.5 719.12,-104.5 719.12,-83.75 847.62,-83.75 847.62,-104.5"/>
<text xml:space="preserve" text-anchor="middle" x="783.38" y="-91" font-family="Helvetica,sans-Serif" font-size="10.00">kynema_sgf::FieldRepo</text>
</a>
</g>
</g>
<!-- Node4&#45;&gt;Node1 -->
<g id="edge16_Node000001_Node000004" class="edge">
<title>Node4&#45;&gt;Node1</title>
<g id="a_edge16_Node000001_Node000004"><a xlink:title=" ">
<path fill="none" stroke="#9a32cd" stroke-dasharray="5,2" d="M858.97,-92.04C900.99,-91.21 954.43,-90.75 1002,-92.12 1194.4,-97.68 1421.73,-113.41 1528.92,-121.38"/>
<polygon fill="#9a32cd" stroke="#9a32cd" points="859.15,-88.53 849.23,-92.24 859.3,-95.53 859.15,-88.53"/>
</a>
</g>
<text xml:space="preserve" text-anchor="start" x="1180.75" y="-107.7" font-family="Helvetica,sans-Serif" font-size="10.00" fill="grey">m_repo</text>
</g>
<!-- Node4&#45;&gt;Node3 -->
<g id="edge3_Node000003_Node000004" class="edge">
<title>Node4&#45;&gt;Node3</title>
<g id="a_edge3_Node000003_Node000004"><a xlink:title=" ">
<path fill="none" stroke="#9a32cd" stroke-dasharray="5,2" d="M858.99,-94.91C901.23,-96.38 954.88,-99.96 1002,-108.38 1021.05,-111.78 1041.85,-117.85 1058.32,-123.25"/>
<polygon fill="#9a32cd" stroke="#9a32cd" points="859.29,-91.42 849.19,-94.61 859.08,-98.42 859.29,-91.42"/>
</a>
</g>
<text xml:space="preserve" text-anchor="start" x="921.38" y="-114.62" font-family="Helvetica,sans-Serif" font-size="10.00" fill="grey">m_repo</text>
</g>
<!-- Node18 -->
<g id="Node000018" class="node">
<title>Node18</title>
<g id="a_Node000018"><a xlink:href="classkynema__sgf_1_1_scratch_field.html" target="_top" xlink:title=" ">
<polygon fill="white" stroke="#666666" points="1159.75,-190.5 1020,-190.5 1020,-169.75 1159.75,-169.75 1159.75,-190.5"/>
<text xml:space="preserve" text-anchor="middle" x="1089.88" y="-177" font-family="Helvetica,sans-Serif" font-size="10.00">kynema_sgf::ScratchField</text>
</a>
</g>
</g>
<!-- Node4&#45;&gt;Node18 -->
<g id="edge22_Node000018_Node000004" class="edge">
<title>Node4&#45;&gt;Node18</title>
<g id="a_edge22_Node000018_Node000004"><a xlink:title=" ">
<path fill="none" stroke="#9a32cd" stroke-dasharray="5,2" d="M818.75,-109.22C836.14,-116.48 857.7,-124.93 877.5,-131.12 928.91,-147.2 988.84,-160.6 1031.73,-169.31"/>
<polygon fill="#9a32cd" stroke="#9a32cd" points="820.49,-106.15 809.92,-105.47 817.76,-112.6 820.49,-106.15"/>
</a>
</g>
<text xml:space="preserve" text-anchor="start" x="921.38" y="-168.24" font-family="Helvetica,sans-Serif" font-size="10.00" fill="grey">m_repo</text>
</g>
<!-- Node5 -->
<g id="Node000005" class="node">
<title>Node5</title>
<g id="a_Node000005"><a xlink:title=" ">
<polygon fill="white" stroke="#666666" points="586.62,-102.88 464.88,-102.88 464.88,-69.38 586.62,-69.38 586.62,-102.88"/>
<text xml:space="preserve" text-anchor="start" x="472.88" y="-89.38" font-family="Helvetica,sans-Serif" font-size="10.00">std::unordered_map</text>
<text xml:space="preserve" text-anchor="middle" x="525.75" y="-76.62" font-family="Helvetica,sans-Serif" font-size="10.00">&lt; std::string, size_t &gt;</text>
</a>
</g>
</g>
<!-- Node5&#45;&gt;Node4 -->
<g id="edge4_Node000004_Node000005" class="edge">
<title>Node5&#45;&gt;Node4</title>
<g id="a_edge4_Node000004_Node000005"><a xlink:title=" ">
<path fill="none" stroke="#9a32cd" stroke-dasharray="5,2" d="M598.39,-85.85C626.7,-85.99 659.52,-86.45 689.25,-87.62 698.8,-88 708.9,-88.55 718.78,-89.17"/>
<polygon fill="#9a32cd" stroke="#9a32cd" points="598.49,-82.35 588.48,-85.82 598.47,-89.35 598.49,-82.35"/>
</a>
</g>
<text xml:space="preserve" text-anchor="start" x="614.25" y="-110.62" font-family="Helvetica,sans-Serif" font-size="10.00" fill="grey">m_fid_map</text>
<text xml:space="preserve" text-anchor="start" x="614.25" y="-93.88" font-family="Helvetica,sans-Serif" font-size="10.00" fill="grey">m_int_fid_map</text>
</g>
<!-- Node6 -->
<g id="Node000006" class="node">
<title>Node6</title>
<g id="a_Node000006"><a xlink:title=" ">
<polygon fill="white" stroke="#666666" points="280.62,-170.5 215.88,-170.5 215.88,-149.75 280.62,-149.75 280.62,-170.5"/>
<text xml:space="preserve" text-anchor="middle" x="248.25" y="-157" font-family="Helvetica,sans-Serif" font-size="10.00">std::string</text>
</a>
</g>
</g>
<!-- Node6&#45;&gt;Node3 -->
<g id="edge10_Node000003_Node000006" class="edge">
<title>Node6&#45;&gt;Node3</title>
<g id="a_edge10_Node000003_Node000006"><a xlink:title=" ">
<path fill="none" stroke="#9a32cd" stroke-dasharray="5,2" d="M292.05,-158.8C433.33,-154.42 884.49,-140.45 1037.53,-135.71"/>
<polygon fill="#9a32cd" stroke="#9a32cd" points="292.28,-155.29 282.4,-159.1 292.5,-162.29 292.28,-155.29"/>
</a>
</g>
<text xml:space="preserve" text-anchor="start" x="628.88" y="-154.87" font-family="Helvetica,sans-Serif" font-size="10.00" fill="grey">m_name</text>
</g>
<!-- Node6&#45;&gt;Node5 -->
<g id="edge5_Node000005_Node000006" class="edge">
<title>Node6&#45;&gt;Node5</title>
<g id="a_edge5_Node000005_Node000006"><a xlink:title=" ">
<path fill="none" stroke="#9a32cd" stroke-dasharray="5,2" d="M270.7,-142.55C284.72,-132.03 303.92,-119.38 323,-112.38 348.2,-103.12 414.6,-95.6 464.39,-91.02"/>
<polygon fill="#9a32cd" stroke="#9a32cd" points="268.83,-139.57 263.08,-148.47 273.12,-145.1 268.83,-139.57"/>
</a>
</g>
<text xml:space="preserve" text-anchor="start" x="370.38" y="-118.62" font-family="Helvetica,sans-Serif" font-size="10.00" fill="grey">keys</text>
</g>
<!-- Node12 -->
<g id="Node000012" class="node">
<title>Node12</title>
<g id="a_Node000012"><a xlink:href="structkynema__sgf_1_1_field_info.html" target="_top" xlink:title=" ">
<polygon fill="white" stroke="#666666" points="587,-203.5 464.5,-203.5 464.5,-182.75 587,-182.75 587,-203.5"/>
<text xml:space="preserve" text-anchor="middle" x="525.75" y="-190" font-family="Helvetica,sans-Serif" font-size="10.00">kynema_sgf::FieldInfo</text>
</a>
</g>
</g>
<!-- Node6&#45;&gt;Node12 -->
<g id="edge13_Node000012_Node000006" class="edge">
<title>Node6&#45;&gt;Node12</title>
<g id="a_edge13_Node000012_Node000006"><a xlink:title=" ">
<path fill="none" stroke="#9a32cd" stroke-dasharray="5,2" d="M292.53,-165.31C338.7,-170.84 412.19,-179.64 464.12,-185.86"/>
<polygon fill="#9a32cd" stroke="#9a32cd" points="292.97,-161.84 282.63,-164.12 292.14,-168.79 292.97,-161.84"/>
</a>
</g>
<text xml:space="preserve" text-anchor="start" x="348.62" y="-188.7" font-family="Helvetica,sans-Serif" font-size="10.00" fill="grey">m_basename</text>
</g>
<!-- Node6&#45;&gt;Node18 -->
<g id="edge23_Node000018_Node000006" class="edge">
<title>Node6&#45;&gt;Node18</title>
<g id="a_edge23_Node000018_Node000006"><a xlink:title=" ">
<path fill="none" stroke="#9a32cd" stroke-dasharray="5,2" d="M271.64,-177.72C285.59,-187.64 304.37,-199.2 323,-205.12 558.15,-279.86 630.76,-231.4 877.5,-232.12 932.83,-232.29 948.67,-246.87 1002,-232.12 1030.97,-224.12 1060,-203.61 1076.08,-190.87"/>
<polygon fill="#9a32cd" stroke="#9a32cd" points="273.75,-174.93 263.63,-171.79 269.58,-180.56 273.75,-174.93"/>
</a>
</g>
<text xml:space="preserve" text-anchor="start" x="628.88" y="-251.85" font-family="Helvetica,sans-Serif" font-size="10.00" fill="grey">m_name</text>
</g>
<!-- Node7 -->
<g id="Node000007" class="node">
<title>Node7</title>
<g id="a_Node000007"><a xlink:title=" ">
<polygon fill="white" stroke="#666666" points="103.75,-176.88 0,-176.88 0,-143.38 103.75,-143.38 103.75,-176.88"/>
<text xml:space="preserve" text-anchor="start" x="8" y="-163.38" font-family="Helvetica,sans-Serif" font-size="10.00">std::basic_string&lt;</text>
<text xml:space="preserve" text-anchor="middle" x="51.88" y="-150.62" font-family="Helvetica,sans-Serif" font-size="10.00"> Char &gt;</text>
</a>
</g>
</g>
<!-- Node7&#45;&gt;Node6 -->
<g id="edge6_Node000006_Node000007" class="edge">
<title>Node7&#45;&gt;Node6</title>
<g id="a_edge6_Node000006_Node000007"><a xlink:title=" ">
<path fill="none" stroke="#63b8ff" d="M115.69,-160.12C149,-160.12 188.5,-160.12 215.46,-160.12"/>
<polygon fill="#63b8ff" stroke="#63b8ff" points="115.71,-156.63 105.71,-160.13 115.71,-163.63 115.71,-156.63"/>
</a>
</g>
</g>
<!-- Node8 -->
<g id="Node000008" class="node">
<title>Node8</title>
<g id="a_Node000008"><a xlink:title=" ">
<polygon fill="white" stroke="#666666" points="305,-100.88 191.5,-100.88 191.5,-67.38 305,-67.38 305,-100.88"/>
<text xml:space="preserve" text-anchor="start" x="199.5" y="-87.38" font-family="Helvetica,sans-Serif" font-size="10.00">std::unordered_map</text>
<text xml:space="preserve" text-anchor="middle" x="248.25" y="-74.62" font-family="Helvetica,sans-Serif" font-size="10.00">&lt; K, T &gt;</text>
</a>
</g>
</g>
<!-- Node8&#45;&gt;Node5 -->
<g id="edge7_Node000005_Node000008" class="edge">
<title>Node8&#45;&gt;Node5</title>
<g id="a_edge7_Node000005_Node000008"><a xlink:title=" ">
<path fill="none" stroke="orange" stroke-dasharray="5,2" d="M316.77,-71.03C318.87,-70.78 320.95,-70.56 323,-70.38 374.89,-65.58 388.36,-65.58 440.25,-70.38 448.13,-71.1 456.36,-72.2 464.47,-73.49"/>
<polygon fill="orange" stroke="orange" points="316.42,-67.54 306.97,-72.34 317.35,-74.48 316.42,-67.54"/>
</a>
</g>
<text xml:space="preserve" text-anchor="start" x="328.75" y="-76.62" font-family="Helvetica,sans-Serif" font-size="10.00" fill="grey">&lt; std::string, size_t &gt;</text>
</g>
<!-- Node9 -->
<g id="Node000009" class="node">
<title>Node9</title>
<g id="a_Node000009"><a xlink:title=" ">
<polygon fill="white" stroke="#666666" points="66.28,-94.5 37.48,-94.5 37.48,-73.75 66.28,-73.75 66.28,-94.5"/>
<text xml:space="preserve" text-anchor="middle" x="51.88" y="-81" font-family="Helvetica,sans-Serif" font-size="10.00">K</text>
</a>
</g>
</g>
<!-- Node9&#45;&gt;Node8 -->
<g id="edge8_Node000008_Node000009" class="edge">
<title>Node9&#45;&gt;Node8</title>
<g id="a_edge8_Node000008_Node000009"><a xlink:title=" ">
<path fill="none" stroke="#9a32cd" stroke-dasharray="5,2" d="M77.83,-84.12C106.28,-84.12 153.68,-84.12 191.12,-84.12"/>
<polygon fill="#9a32cd" stroke="#9a32cd" points="78.06,-80.63 68.06,-84.13 78.06,-87.63 78.06,-80.63"/>
</a>
</g>
<text xml:space="preserve" text-anchor="start" x="136.38" y="-90.38" font-family="Helvetica,sans-Serif" font-size="10.00" fill="grey">keys</text>
</g>
<!-- Node10 -->
<g id="Node000010" class="node">
<title>Node10</title>
<g id="a_Node000010"><a xlink:title=" ">
<polygon fill="white" stroke="#666666" points="66.28,-292.5 37.48,-292.5 37.48,-271.75 66.28,-271.75 66.28,-292.5"/>
<text xml:space="preserve" text-anchor="middle" x="51.88" y="-279" font-family="Helvetica,sans-Serif" font-size="10.00">T</text>
</a>
</g>
</g>
<!-- Node10&#45;&gt;Node8 -->
<g id="edge9_Node000008_Node000010" class="edge">
<title>Node10&#45;&gt;Node8</title>
<g id="a_edge9_Node000008_Node000010"><a xlink:title=" ">
<path fill="none" stroke="#9a32cd" stroke-dasharray="5,2" d="M70.96,-263.71C108.41,-225.55 194.03,-138.34 230.4,-101.29"/>
<polygon fill="#9a32cd" stroke="#9a32cd" points="68.89,-260.81 64.39,-270.4 73.89,-265.72 68.89,-260.81"/>
</a>
</g>
<text xml:space="preserve" text-anchor="start" x="124.75" y="-212.93" font-family="Helvetica,sans-Serif" font-size="10.00" fill="grey">elements</text>
</g>
<!-- Node13 -->
<g id="Node000013" class="node">
<title>Node13</title>
<g id="a_Node000013"><a xlink:title=" ">
<polygon fill="white" stroke="#666666" points="440.25,-292.5 323,-292.5 323,-271.75 440.25,-271.75 440.25,-292.5"/>
<text xml:space="preserve" text-anchor="middle" x="381.62" y="-279" font-family="Helvetica,sans-Serif" font-size="10.00">std::shared_ptr&lt; T &gt;</text>
</a>
</g>
</g>
<!-- Node10&#45;&gt;Node13 -->
<g id="edge15_Node000013_Node000010" class="edge">
<title>Node10&#45;&gt;Node13</title>
<g id="a_edge15_Node000013_Node000010"><a xlink:title=" ">
<path fill="none" stroke="#9a32cd" stroke-dasharray="5,2" d="M77.91,-282.12C129.8,-282.12 250.26,-282.12 322.6,-282.12"/>
<polygon fill="#9a32cd" stroke="#9a32cd" points="78.05,-278.63 68.05,-282.13 78.05,-285.63 78.05,-278.63"/>
</a>
</g>
<text xml:space="preserve" text-anchor="start" x="140.88" y="-288.38" font-family="Helvetica,sans-Serif" font-size="10.00" fill="grey">ptr</text>
</g>
<!-- Node19 -->
<g id="Node000019" class="node">
<title>Node19</title>
<g id="a_Node000019"><a xlink:title=" ">
<polygon fill="white" stroke="#666666" points="440.25,-337.5 323,-337.5 323,-316.75 440.25,-316.75 440.25,-337.5"/>
<text xml:space="preserve" text-anchor="middle" x="381.62" y="-324" font-family="Helvetica,sans-Serif" font-size="10.00">std::unique_ptr&lt; T &gt;</text>
</a>
</g>
</g>
<!-- Node10&#45;&gt;Node19 -->
<g id="edge25_Node000019_Node000010" class="edge">
<title>Node10&#45;&gt;Node19</title>
<g id="a_edge25_Node000019_Node000010"><a xlink:title=" ">
<path fill="none" stroke="#9a32cd" stroke-dasharray="5,2" d="M77.52,-290.97C90.51,-295.3 106.82,-300.19 121.75,-303.12 189.95,-316.54 269.78,-322.5 322.57,-325.12"/>
<polygon fill="#9a32cd" stroke="#9a32cd" points="78.67,-287.67 68.08,-287.73 76.4,-294.29 78.67,-287.67"/>
</a>
</g>
<text xml:space="preserve" text-anchor="start" x="140.88" y="-317.73" font-family="Helvetica,sans-Serif" font-size="10.00" fill="grey">ptr</text>
</g>
<!-- Node11 -->
<g id="Node000011" class="node">
<title>Node11</title>
<g id="a_Node000011"><a xlink:title=" ">
<polygon fill="white" stroke="#666666" points="852.88,-221.88 713.88,-221.88 713.88,-188.38 852.88,-188.38 852.88,-221.88"/>
<text xml:space="preserve" text-anchor="start" x="721.88" y="-208.38" font-family="Helvetica,sans-Serif" font-size="10.00">std::shared_ptr&lt; kynema</text>
<text xml:space="preserve" text-anchor="middle" x="783.38" y="-195.62" font-family="Helvetica,sans-Serif" font-size="10.00">_sgf::FieldInfo &gt;</text>
</a>
</g>
</g>
<!-- Node11&#45;&gt;Node3 -->
<g id="edge11_Node000003_Node000011" class="edge">
<title>Node11&#45;&gt;Node3</title>
<g id="a_edge11_Node000003_Node000011"><a xlink:title=" ">
<path fill="none" stroke="#9a32cd" stroke-dasharray="5,2" d="M864.67,-209.09C917.03,-210.17 979.66,-208.16 1002,-194.12 1016.15,-185.24 1007.47,-172.17 1020,-161.12 1027.9,-154.16 1037.81,-148.89 1047.62,-144.94"/>
<polygon fill="#9a32cd" stroke="#9a32cd" points="864.92,-205.59 854.84,-208.84 864.75,-212.59 864.92,-205.59"/>
</a>
</g>
<text xml:space="preserve" text-anchor="start" x="922.88" y="-215.58" font-family="Helvetica,sans-Serif" font-size="10.00" fill="grey">m_info</text>
</g>
<!-- Node12&#45;&gt;Node11 -->
<g id="edge12_Node000011_Node000012" class="edge">
<title>Node12&#45;&gt;Node11</title>
<g id="a_edge12_Node000011_Node000012"><a xlink:title=" ">
<path fill="none" stroke="#9a32cd" stroke-dasharray="5,2" d="M598.74,-196.5C634.75,-198.19 678.11,-200.23 713.66,-201.9"/>
<polygon fill="#9a32cd" stroke="#9a32cd" points="598.99,-193.01 588.84,-196.04 598.67,-200 598.99,-193.01"/>
</a>
</g>
<text xml:space="preserve" text-anchor="start" x="643.5" y="-206.8" font-family="Helvetica,sans-Serif" font-size="10.00" fill="grey">ptr</text>
</g>
<!-- Node13&#45;&gt;Node11 -->
<g id="edge14_Node000011_Node000013" class="edge">
<title>Node13&#45;&gt;Node11</title>
<g id="a_edge14_Node000011_Node000013"><a xlink:title=" ">
<path fill="none" stroke="orange" stroke-dasharray="5,2" d="M452,-289.48C515.44,-293.77 611.04,-294.06 689.25,-268.12 717.97,-258.6 746.05,-237.52 763.74,-222.36"/>
<polygon fill="orange" stroke="orange" points="452.28,-285.99 442.05,-288.75 451.76,-292.97 452.28,-285.99"/>
</a>
</g>
<text xml:space="preserve" text-anchor="start" x="461.25" y="-297.91" font-family="Helvetica,sans-Serif" font-size="10.00" fill="grey">&lt; kynema_sgf::FieldInfo &gt;</text>
</g>
<!-- Node14 -->
<g id="Node000014" class="node">
<title>Node14</title>
<g id="a_Node000014"><a xlink:href="classkynema__sgf_1_1transport_1_1_transport_model.html" target="_top" xlink:title=" ">
<polygon fill="white" stroke="#666666" points="1375.25,-44.88 1250.5,-44.88 1250.5,-11.38 1375.25,-11.38 1375.25,-44.88"/>
<text xml:space="preserve" text-anchor="start" x="1258.5" y="-31.38" font-family="Helvetica,sans-Serif" font-size="10.00">kynema_sgf::transport</text>
<text xml:space="preserve" text-anchor="middle" x="1312.88" y="-18.62" font-family="Helvetica,sans-Serif" font-size="10.00">::TransportModel</text>
</a>
</g>
</g>
<!-- Node14&#45;&gt;Node1 -->
<g id="edge17_Node000001_Node000014" class="edge">
<title>Node14&#45;&gt;Node1</title>
<g id="a_edge17_Node000001_Node000014"><a xlink:title=" ">
<path fill="none" stroke="#9a32cd" stroke-dasharray="5,2" d="M1386.59,-20.56C1425.26,-19.54 1472.61,-23.24 1511,-41.38 1542.24,-56.14 1567.33,-88.99 1580.54,-109.18"/>
<polygon fill="#9a32cd" stroke="#9a32cd" points="1386.78,-17.05 1376.92,-20.93 1387.05,-24.05 1386.78,-17.05"/>
</a>
</g>
<text xml:space="preserve" text-anchor="start" x="1428.5" y="-47.62" font-family="Helvetica,sans-Serif" font-size="10.00" fill="grey">m_transport</text>
</g>
<!-- Node15 -->
<g id="Node000015" class="node">
<title>Node15</title>
<g id="a_Node000015"><a xlink:href="structkynema__sgf_1_1_factory.html" target="_top" xlink:title=" ">
<polygon fill="white" stroke="#666666" points="1157.12,-46.25 1022.62,-46.25 1022.62,0 1157.12,0 1157.12,-46.25"/>
<text xml:space="preserve" text-anchor="start" x="1030.62" y="-32.75" font-family="Helvetica,sans-Serif" font-size="10.00">kynema_sgf::Factory</text>
<text xml:space="preserve" text-anchor="start" x="1030.62" y="-20" font-family="Helvetica,sans-Serif" font-size="10.00">&lt; TransportModel, const</text>
<text xml:space="preserve" text-anchor="middle" x="1089.88" y="-7.25" font-family="Helvetica,sans-Serif" font-size="10.00"> CFDSim &amp; &gt;</text>
</a>
</g>
</g>
<!-- Node15&#45;&gt;Node14 -->
<g id="edge18_Node000014_Node000015" class="edge">
<title>Node15&#45;&gt;Node14</title>
<g id="a_edge18_Node000014_Node000015"><a xlink:title=" ">
<path fill="none" stroke="#63b8ff" d="M1168.75,-24.89C1195.5,-25.49 1225.04,-26.16 1250.31,-26.73"/>
<polygon fill="#63b8ff" stroke="#63b8ff" points="1169.07,-21.39 1159,-24.67 1168.91,-28.39 1169.07,-21.39"/>
</a>
</g>
</g>
<!-- Node16 -->
<g id="Node000016" class="node">
<title>Node16</title>
<g id="a_Node000016"><a xlink:href="structkynema__sgf_1_1_factory.html" target="_top" xlink:title=" ">
<polygon fill="white" stroke="#666666" points="841.25,-39.88 725.5,-39.88 725.5,-6.38 841.25,-6.38 841.25,-39.88"/>
<text xml:space="preserve" text-anchor="start" x="733.5" y="-26.38" font-family="Helvetica,sans-Serif" font-size="10.00">kynema_sgf::Factory</text>
<text xml:space="preserve" text-anchor="middle" x="783.38" y="-13.62" font-family="Helvetica,sans-Serif" font-size="10.00">&lt; Base, Args &gt;</text>
</a>
</g>
</g>
<!-- Node16&#45;&gt;Node15 -->
<g id="edge19_Node000015_Node000016" class="edge">
<title>Node16&#45;&gt;Node15</title>
<g id="a_edge19_Node000015_Node000016"><a xlink:title=" ">
<path fill="none" stroke="orange" stroke-dasharray="5,2" d="M853.14,-23.12C903.76,-23.12 972.22,-23.12 1022.32,-23.12"/>
<polygon fill="orange" stroke="orange" points="853.16,-19.63 843.16,-23.13 853.16,-26.63 853.16,-19.63"/>
</a>
</g>
<text xml:space="preserve" text-anchor="start" x="880.5" y="-46.12" font-family="Helvetica,sans-Serif" font-size="10.00" fill="grey">&lt; TransportModel, const</text>
<text xml:space="preserve" text-anchor="start" x="880.5" y="-29.38" font-family="Helvetica,sans-Serif" font-size="10.00" fill="grey">   CFDSim &amp; &gt;</text>
</g>
<!-- Node17 -->
<g id="Node000017" class="node">
<title>Node17</title>
<g id="a_Node000017"><a xlink:title=" ">
<polygon fill="white" stroke="#666666" points="1382.38,-196.88 1243.38,-196.88 1243.38,-163.38 1382.38,-163.38 1382.38,-196.88"/>
<text xml:space="preserve" text-anchor="start" x="1251.38" y="-183.38" font-family="Helvetica,sans-Serif" font-size="10.00">std::unique_ptr&lt; kynema</text>
<text xml:space="preserve" text-anchor="middle" x="1312.88" y="-170.62" font-family="Helvetica,sans-Serif" font-size="10.00">_sgf::ScratchField &gt;</text>
</a>
</g>
</g>
<!-- Node17&#45;&gt;Node1 -->
<g id="edge20_Node000001_Node000017" class="edge">
<title>Node17&#45;&gt;Node1</title>
<g id="a_edge20_Node000001_Node000017"><a xlink:title=" ">
<path fill="none" stroke="#9a32cd" stroke-dasharray="5,2" d="M1393.96,-164.51C1436.94,-156.12 1489.1,-145.95 1528.92,-138.18"/>
<polygon fill="#9a32cd" stroke="#9a32cd" points="1393.3,-161.07 1384.16,-166.42 1394.64,-167.94 1393.3,-161.07"/>
</a>
</g>
<text xml:space="preserve" text-anchor="start" x="1408.25" y="-184.12" font-family="Helvetica,sans-Serif" font-size="10.00" fill="grey">m_beta_scratch</text>
<text xml:space="preserve" text-anchor="start" x="1408.25" y="-167.37" font-family="Helvetica,sans-Serif" font-size="10.00" fill="grey">m_ref_theta_scratch</text>
</g>
<!-- Node18&#45;&gt;Node17 -->
<g id="edge21_Node000017_Node000018" class="edge">
<title>Node18&#45;&gt;Node17</title>
<g id="a_edge21_Node000017_Node000018"><a xlink:title=" ">
<path fill="none" stroke="#9a32cd" stroke-dasharray="5,2" d="M1171.55,-180.12C1195.05,-180.12 1220.49,-180.12 1243.18,-180.12"/>
<polygon fill="#9a32cd" stroke="#9a32cd" points="1171.71,-176.63 1161.71,-180.13 1171.71,-183.63 1171.71,-176.63"/>
</a>
</g>
<text xml:space="preserve" text-anchor="start" x="1192.38" y="-186.38" font-family="Helvetica,sans-Serif" font-size="10.00" fill="grey">ptr</text>
</g>
<!-- Node19&#45;&gt;Node17 -->
<g id="edge24_Node000017_Node000019" class="edge">
<title>Node19&#45;&gt;Node17</title>
<g id="a_edge24_Node000017_Node000019"><a xlink:title=" ">
<path fill="none" stroke="orange" stroke-dasharray="5,2" d="M452.08,-327.93C505.89,-328.49 582.3,-329.12 649.25,-329.12 649.25,-329.12 649.25,-329.12 1090.88,-329.12 1176.28,-329.12 1164.29,-248.38 1238.5,-206.12 1244.14,-202.92 1250.24,-200 1256.44,-197.37"/>
<polygon fill="orange" stroke="orange" points="452.17,-324.43 442.13,-327.83 452.09,-331.43 452.17,-324.43"/>
</a>
</g>
<text xml:space="preserve" text-anchor="start" x="710.25" y="-335.38" font-family="Helvetica,sans-Serif" font-size="10.00" fill="grey">&lt; kynema_sgf::ScratchField &gt;</text>
</g>
</g>
</svg>

<g id="navigator" transform="translate(0 0)" fill="#404254">
  <rect fill="#f2f5e9" fill-opacity="0.5" stroke="#606060" stroke-width=".5" x="0" y="0" width="60" height="60"/>
  <use id="zoomplus" xlink:href="#zoomPlus" x="17" y="9" onmousedown="handleZoom(evt,'in')"/>
  <use id="zoomminus" xlink:href="#zoomMin" x="42" y="9" onmousedown="handleZoom(evt,'out')"/>
  <use id="reset" xlink:href="#resetDef" x="30" y="36" onmousedown="handleReset()"/>
   <use id="arrowup" xlink:href="#arrowUp" x="0" y="0" onmousedown="handlePan(0,-1)"/>
  <use id="arrowright" xlink:href="#arrowRight" x="0" y="0" onmousedown="handlePan(1,0)"/>
  <use id="arrowdown" xlink:href="#arrowDown" x="0" y="0" onmousedown="handlePan(0,1)"/>
  <use id="arrowleft" xlink:href="#arrowLeft" x="0" y="0" onmousedown="handlePan(-1,0)"/>
</g>
<svg viewBox="0 0 15 15" width="100%" height="30px" preserveAspectRatio="xMaxYMin meet">
 <g id="arrow_out" transform="scale(0.3 0.3)">
  <a xlink:href="classkynema__sgf_1_1pde_1_1icns_1_1_boussinesq_buoyancy__coll__graph_org.svg" target="_base">
   <rect id="button" ry="5" rx="5" y="6" x="6" height="38" width="38"
        fill="#f2f5e9" fill-opacity="0.5" stroke="#606060" stroke-width="1.0"/>
   <path id="arrow"
     d="M 11.500037,31.436501 C 11.940474,20.09759 22.043105,11.32322 32.158766,21.979434 L 37.068811,17.246167 C 37.068811,17.246167 37.088388,32 37.088388,32 L 22.160133,31.978069 C 22.160133,31.978069 26.997745,27.140456 26.997745,27.140456 C 18.528582,18.264221 13.291696,25.230495 11.500037,31.436501 z"
     style="fill:#404040;"/>
  </a>
 </g>
</svg>

<style type='text/css'>
<![CDATA[
[data-mouse-over-selected='false'] { opacity: 0.7; }
[data-mouse-over-selected='true']  { opacity: 1.0; }
]]>
</style>
<script type="application/ecmascript"><![CDATA[
document.addEventListener('DOMContentLoaded', (event) => {
  highlightEdges();
  highlightAdjacentNodes();
});
]]></script>
</svg>
