<?xml version="1.0" encoding="UTF-8" standalone="no"?>
<!DOCTYPE svg PUBLIC "-//W3C//DTD SVG 1.1//EN"
 "http://www.w3.org/Graphics/SVG/1.1/DTD/svg11.dtd">
<!-- Generated by graphviz version 14.1.2 (0)
 -->
<!-- Title: /home/runner/work/kynema&#45;sgf/kynema&#45;sgf/src/utilities/console_io.H Pages: 1 -->
<svg width="1643pt" height="219pt"
 viewBox="0.00 0.00 1643.00 219.00" xmlns="http://www.w3.org/2000/svg" xmlns:xlink="http://www.w3.org/1999/xlink">
<g id="graph0" class="graph" transform="scale(1 1) rotate(0) translate(4 214.75)">
<title>/home/runner/work/kynema&#45;sgf/kynema&#45;sgf/src/utilities/console_io.H</title>
<!-- Node1 -->
<g id="Node000001" class="node">
<title>Node1</title>
<g id="a_Node000001"><a xlink:title=" ">
<polygon fill="#999999" stroke="#666666" points="884.5,-210.75 732,-210.75 732,-164.5 884.5,-164.5 884.5,-210.75"/>
<text xml:space="preserve" text-anchor="start" x="740" y="-197.25" font-family="Helvetica,sans-Serif" font-size="10.00">/home/runner/work/kynema</text>
<text xml:space="preserve" text-anchor="start" x="740" y="-184.5" font-family="Helvetica,sans-Serif" font-size="10.00">&#45;sgf/kynema&#45;sgf/src/utilities</text>
<text xml:space="preserve" text-anchor="middle" x="808.25" y="-171.75" font-family="Helvetica,sans-Serif" font-size="10.00">/console_io.H</text>
</a>
</g>
</g>
<!-- Node2 -->
<g id="Node000002" class="node">
<title>Node2</title>
<g id="a_Node000002"><a xlink:href="_diffusion_ops_8cpp.html" target="_top" xlink:title=" ">
<polygon fill="white" stroke="#666666" points="158.5,-128.5 0,-128.5 0,-82.25 158.5,-82.25 158.5,-128.5"/>
<text xml:space="preserve" text-anchor="start" x="8" y="-115" font-family="Helvetica,sans-Serif" font-size="10.00">/home/runner/work/kynema</text>
<text xml:space="preserve" text-anchor="start" x="8" y="-102.25" font-family="Helvetica,sans-Serif" font-size="10.00">&#45;sgf/kynema&#45;sgf/src/equation</text>
<text xml:space="preserve" text-anchor="middle" x="79.25" y="-89.5" font-family="Helvetica,sans-Serif" font-size="10.00">_systems/DiffusionOps.cpp</text>
</a>
</g>
</g>
<!-- Node1&#45;&gt;Node2 -->
<g id="edge1_Node000001_Node000002" class="edge">
<title>Node1&#45;&gt;Node2</title>
<g id="a_edge1_Node000001_Node000002"><a xlink:title=" ">
<path fill="none" stroke="#63b8ff" d="M720.64,-182.92C596.85,-176.72 364.01,-161.52 168.25,-128.5 165.11,-127.97 161.92,-127.39 158.7,-126.77"/>
<polygon fill="#63b8ff" stroke="#63b8ff" points="720.23,-186.4 730.39,-183.4 720.58,-179.41 720.23,-186.4"/>
</a>
</g>
</g>
<!-- Node3 -->
<g id="Node000003" class="node">
<title>Node3</title>
<g id="a_Node000003"><a xlink:href="icns__advection_8cpp.html" target="_top" xlink:title=" ">
<polygon fill="white" stroke="#666666" points="357.75,-128.5 176.75,-128.5 176.75,-82.25 357.75,-82.25 357.75,-128.5"/>
<text xml:space="preserve" text-anchor="start" x="184.75" y="-115" font-family="Helvetica,sans-Serif" font-size="10.00">/home/runner/work/kynema</text>
<text xml:space="preserve" text-anchor="start" x="184.75" y="-102.25" font-family="Helvetica,sans-Serif" font-size="10.00">&#45;sgf/kynema&#45;sgf/src/equation</text>
<text xml:space="preserve" text-anchor="middle" x="267.25" y="-89.5" font-family="Helvetica,sans-Serif" font-size="10.00">_systems/icns/icns_advection.cpp</text>
</a>
</g>
</g>
<!-- Node1&#45;&gt;Node3 -->
<g id="edge2_Node000001_Node000003" class="edge">
<title>Node1&#45;&gt;Node3</title>
<g id="a_edge2_Node000001_Node000003"><a xlink:title=" ">
<path fill="none" stroke="#63b8ff" d="M720.49,-177.42C631.05,-167.49 488.48,-150.15 366.25,-128.5 363.56,-128.02 360.84,-127.52 358.09,-127.01"/>
<polygon fill="#63b8ff" stroke="#63b8ff" points="719.85,-180.87 730.17,-178.49 720.61,-173.91 719.85,-180.87"/>
</a>
</g>
</g>
<!-- Node4 -->
<g id="Node000004" class="node">
<title>Node4</title>
<g id="a_Node000004"><a xlink:href="icns__diffusion_8_h.html" target="_top" xlink:title=" ">
<polygon fill="white" stroke="#666666" points="540.88,-128.5 375.62,-128.5 375.62,-82.25 540.88,-82.25 540.88,-128.5"/>
<text xml:space="preserve" text-anchor="start" x="383.62" y="-115" font-family="Helvetica,sans-Serif" font-size="10.00">/home/runner/work/kynema</text>
<text xml:space="preserve" text-anchor="start" x="383.62" y="-102.25" font-family="Helvetica,sans-Serif" font-size="10.00">&#45;sgf/kynema&#45;sgf/src/equation</text>
<text xml:space="preserve" text-anchor="middle" x="458.25" y="-89.5" font-family="Helvetica,sans-Serif" font-size="10.00">_systems/icns/icns_diffusion.H</text>
</a>
</g>
</g>
<!-- Node1&#45;&gt;Node4 -->
<g id="edge3_Node000001_Node000004" class="edge">
<title>Node1&#45;&gt;Node4</title>
<g id="a_edge3_Node000001_Node000004"><a xlink:title=" ">
<path fill="none" stroke="#63b8ff" d="M720.61,-167.21C670.65,-156.06 606.89,-141.69 550.25,-128.5 547.21,-127.79 544.11,-127.07 540.99,-126.33"/>
<polygon fill="#63b8ff" stroke="#63b8ff" points="719.7,-170.59 730.22,-169.35 721.22,-163.76 719.7,-170.59"/>
</a>
</g>
</g>
<!-- Node6 -->
<g id="Node000006" class="node">
<title>Node6</title>
<g id="a_Node000006"><a xlink:href="incflo__advance_8cpp.html" target="_top" xlink:title=" ">
<polygon fill="white" stroke="#666666" points="709.38,-128.5 559.12,-128.5 559.12,-82.25 709.38,-82.25 709.38,-128.5"/>
<text xml:space="preserve" text-anchor="start" x="567.12" y="-115" font-family="Helvetica,sans-Serif" font-size="10.00">/home/runner/work/kynema</text>
<text xml:space="preserve" text-anchor="start" x="567.12" y="-102.25" font-family="Helvetica,sans-Serif" font-size="10.00">&#45;sgf/kynema&#45;sgf/src/incflo</text>
<text xml:space="preserve" text-anchor="middle" x="634.25" y="-89.5" font-family="Helvetica,sans-Serif" font-size="10.00">_advance.cpp</text>
</a>
</g>
</g>
<!-- Node1&#45;&gt;Node6 -->
<g id="edge5_Node000001_Node000006" class="edge">
<title>Node1&#45;&gt;Node6</title>
<g id="a_edge5_Node000001_Node000006"><a xlink:title=" ">
<path fill="none" stroke="#63b8ff" d="M749.01,-159.3C727.56,-149.41 703.58,-138.35 683.12,-128.91"/>
<polygon fill="#63b8ff" stroke="#63b8ff" points="747.4,-162.41 757.94,-163.42 750.33,-156.06 747.4,-162.41"/>
</a>
</g>
</g>
<!-- Node7 -->
<g id="Node000007" class="node">
<title>Node7</title>
<g id="a_Node000007"><a xlink:href="main_8cpp.html" target="_top" xlink:title=" ">
<polygon fill="white" stroke="#666666" points="888.62,-122.12 727.88,-122.12 727.88,-88.62 888.62,-88.62 888.62,-122.12"/>
<text xml:space="preserve" text-anchor="start" x="735.88" y="-108.62" font-family="Helvetica,sans-Serif" font-size="10.00">/home/runner/work/kynema</text>
<text xml:space="preserve" text-anchor="middle" x="808.25" y="-95.88" font-family="Helvetica,sans-Serif" font-size="10.00">&#45;sgf/kynema&#45;sgf/src/main.cpp</text>
</a>
</g>
</g>
<!-- Node1&#45;&gt;Node7 -->
<g id="edge6_Node000001_Node000007" class="edge">
<title>Node1&#45;&gt;Node7</title>
<g id="a_edge6_Node000001_Node000007"><a xlink:title=" ">
<path fill="none" stroke="#63b8ff" d="M808.25,-152.82C808.25,-142.32 808.25,-131.22 808.25,-122.5"/>
<polygon fill="#63b8ff" stroke="#63b8ff" points="804.75,-152.76 808.25,-162.76 811.75,-152.76 804.75,-152.76"/>
</a>
</g>
</g>
<!-- Node8 -->
<g id="Node000008" class="node">
<title>Node8</title>
<g id="a_Node000008"><a xlink:href="incflo__apply__nodal__projection_8cpp.html" target="_top" xlink:title=" ">
<polygon fill="white" stroke="#666666" points="1090.25,-128.5 906.25,-128.5 906.25,-82.25 1090.25,-82.25 1090.25,-128.5"/>
<text xml:space="preserve" text-anchor="start" x="914.25" y="-115" font-family="Helvetica,sans-Serif" font-size="10.00">/home/runner/work/kynema</text>
<text xml:space="preserve" text-anchor="start" x="914.25" y="-102.25" font-family="Helvetica,sans-Serif" font-size="10.00">&#45;sgf/kynema&#45;sgf/src/projection</text>
<text xml:space="preserve" text-anchor="middle" x="998.25" y="-89.5" font-family="Helvetica,sans-Serif" font-size="10.00">/incflo_apply_nodal_projection.cpp</text>
</a>
</g>
</g>
<!-- Node1&#45;&gt;Node8 -->
<g id="edge7_Node000001_Node000008" class="edge">
<title>Node1&#45;&gt;Node8</title>
<g id="a_edge7_Node000001_Node000008"><a xlink:title=" ">
<path fill="none" stroke="#63b8ff" d="M871.98,-159.71C895.65,-149.71 922.24,-138.48 944.89,-128.91"/>
<polygon fill="#63b8ff" stroke="#63b8ff" points="870.93,-156.35 863.08,-163.47 873.65,-162.8 870.93,-156.35"/>
</a>
</g>
</g>
<!-- Node9 -->
<g id="Node000009" class="node">
<title>Node9</title>
<g id="a_Node000009"><a xlink:href="_i_o_manager_8cpp.html" target="_top" xlink:title=" ">
<polygon fill="white" stroke="#666666" points="1260.5,-128.5 1108,-128.5 1108,-82.25 1260.5,-82.25 1260.5,-128.5"/>
<text xml:space="preserve" text-anchor="start" x="1116" y="-115" font-family="Helvetica,sans-Serif" font-size="10.00">/home/runner/work/kynema</text>
<text xml:space="preserve" text-anchor="start" x="1116" y="-102.25" font-family="Helvetica,sans-Serif" font-size="10.00">&#45;sgf/kynema&#45;sgf/src/utilities</text>
<text xml:space="preserve" text-anchor="middle" x="1184.25" y="-89.5" font-family="Helvetica,sans-Serif" font-size="10.00">/IOManager.cpp</text>
</a>
</g>
</g>
<!-- Node1&#45;&gt;Node9 -->
<g id="edge8_Node000001_Node000009" class="edge">
<title>Node1&#45;&gt;Node9</title>
<g id="a_edge8_Node000001_Node000009"><a xlink:title=" ">
<path fill="none" stroke="#63b8ff" d="M896.1,-170.44C953.98,-159.44 1031.35,-144.1 1099.25,-128.5 1102.07,-127.85 1104.95,-127.18 1107.85,-126.48"/>
<polygon fill="#63b8ff" stroke="#63b8ff" points="895.45,-167 886.27,-172.3 896.75,-173.88 895.45,-167"/>
</a>
</g>
</g>
<!-- Node10 -->
<g id="Node000010" class="node">
<title>Node10</title>
<g id="a_Node000010"><a xlink:href="console__io_8cpp.html" target="_top" xlink:title=" ">
<polygon fill="white" stroke="#666666" points="1431.5,-128.5 1279,-128.5 1279,-82.25 1431.5,-82.25 1431.5,-128.5"/>
<text xml:space="preserve" text-anchor="start" x="1287" y="-115" font-family="Helvetica,sans-Serif" font-size="10.00">/home/runner/work/kynema</text>
<text xml:space="preserve" text-anchor="start" x="1287" y="-102.25" font-family="Helvetica,sans-Serif" font-size="10.00">&#45;sgf/kynema&#45;sgf/src/utilities</text>
<text xml:space="preserve" text-anchor="middle" x="1355.25" y="-89.5" font-family="Helvetica,sans-Serif" font-size="10.00">/console_io.cpp</text>
</a>
</g>
</g>
<!-- Node1&#45;&gt;Node10 -->
<g id="edge9_Node000001_Node000010" class="edge">
<title>Node1&#45;&gt;Node10</title>
<g id="a_edge9_Node000001_Node000010"><a xlink:title=" ">
<path fill="none" stroke="#63b8ff" d="M896.33,-178.86C989.49,-169.87 1140.51,-153.07 1269.25,-128.5 1272.43,-127.89 1275.67,-127.24 1278.93,-126.54"/>
<polygon fill="#63b8ff" stroke="#63b8ff" points="896.11,-175.36 886.49,-179.8 896.78,-182.33 896.11,-175.36"/>
</a>
</g>
</g>
<!-- Node11 -->
<g id="Node000011" class="node">
<title>Node11</title>
<g id="a_Node000011"><a xlink:href="io_8cpp.html" target="_top" xlink:title=" ">
<polygon fill="white" stroke="#666666" points="1634.62,-122.12 1449.88,-122.12 1449.88,-88.62 1634.62,-88.62 1634.62,-122.12"/>
<text xml:space="preserve" text-anchor="start" x="1457.88" y="-108.62" font-family="Helvetica,sans-Serif" font-size="10.00">/home/runner/work/kynema</text>
<text xml:space="preserve" text-anchor="middle" x="1542.25" y="-95.88" font-family="Helvetica,sans-Serif" font-size="10.00">&#45;sgf/kynema&#45;sgf/src/utilities/io.cpp</text>
</a>
</g>
</g>
<!-- Node1&#45;&gt;Node11 -->
<g id="edge10_Node000001_Node000011" class="edge">
<title>Node1&#45;&gt;Node11</title>
<g id="a_edge10_Node000001_Node000011"><a xlink:title=" ">
<path fill="none" stroke="#63b8ff" d="M896.14,-181.94C1018.6,-174.63 1247.25,-158.19 1440.25,-128.5 1450.91,-126.86 1462.12,-124.79 1473.05,-122.57"/>
<polygon fill="#63b8ff" stroke="#63b8ff" points="896.27,-178.42 886.5,-182.5 896.69,-185.41 896.27,-178.42"/>
</a>
</g>
</g>
<!-- Node5 -->
<g id="Node000005" class="node">
<title>Node5</title>
<g id="a_Node000005"><a xlink:href="icns_8cpp.html" target="_top" xlink:title=" ">
<polygon fill="white" stroke="#666666" points="537.5,-46.25 379,-46.25 379,0 537.5,0 537.5,-46.25"/>
<text xml:space="preserve" text-anchor="start" x="387" y="-32.75" font-family="Helvetica,sans-Serif" font-size="10.00">/home/runner/work/kynema</text>
<text xml:space="preserve" text-anchor="start" x="387" y="-20" font-family="Helvetica,sans-Serif" font-size="10.00">&#45;sgf/kynema&#45;sgf/src/equation</text>
<text xml:space="preserve" text-anchor="middle" x="458.25" y="-7.25" font-family="Helvetica,sans-Serif" font-size="10.00">_systems/icns/icns.cpp</text>
</a>
</g>
</g>
<!-- Node4&#45;&gt;Node5 -->
<g id="edge4_Node000004_Node000005" class="edge">
<title>Node4&#45;&gt;Node5</title>
<g id="a_edge4_Node000004_Node000005"><a xlink:title=" ">
<path fill="none" stroke="#63b8ff" d="M458.25,-70.59C458.25,-62.5 458.25,-54.07 458.25,-46.64"/>
<polygon fill="#63b8ff" stroke="#63b8ff" points="454.75,-70.51 458.25,-80.51 461.75,-70.51 454.75,-70.51"/>
</a>
</g>
</g>
</g>
</svg>
