<?xml version="1.0" encoding="UTF-8" standalone="no"?>
<!DOCTYPE svg PUBLIC "-//W3C//DTD SVG 1.1//EN"
 "http://www.w3.org/Graphics/SVG/1.1/DTD/svg11.dtd">
<!-- Generated by graphviz version 14.1.2 (0)
 -->
<!-- Title: Graphical Class Hierarchy Pages: 1 -->
<svg width="368pt" height="458pt"
 viewBox="0.00 0.00 368.00 458.00" xmlns="http://www.w3.org/2000/svg" xmlns:xlink="http://www.w3.org/1999/xlink">
<g id="graph0" class="graph" transform="scale(1 1) rotate(0) translate(4 453.5)">
<title>Graphical Class Hierarchy</title>
<!-- Node0 -->
<g id="Node000000" class="node">
<title>Node0</title>
<g id="a_Node000000"><a xlink:title=" ">
<polygon fill="#e0e0e0" stroke="#999999" points="154.75,-254.25 0,-254.25 0,-195.25 154.75,-195.25 154.75,-254.25"/>
<text xml:space="preserve" text-anchor="start" x="8" y="-240.75" font-family="Helvetica,sans-Serif" font-size="10.00">kynema_sgf::Factory</text>
<text xml:space="preserve" text-anchor="start" x="8" y="-228" font-family="Helvetica,sans-Serif" font-size="10.00">&lt; PostProcessBase, CFDSim</text>
<text xml:space="preserve" text-anchor="start" x="8" y="-215.25" font-family="Helvetica,sans-Serif" font-size="10.00"> &amp;, const std::string &amp;</text>
<text xml:space="preserve" text-anchor="middle" x="77.38" y="-202.5" font-family="Helvetica,sans-Serif" font-size="10.00"> &gt;::Register</text>
</a>
</g>
</g>
<!-- Node1 -->
<g id="Node000001" class="node">
<title>Node1</title>
<g id="a_Node000001"><a xlink:href="classkynema__sgf_1_1ascent__int_1_1_ascent_post_process.html" target="_top" xlink:title=" ">
<polygon fill="white" stroke="#666666" points="341,-449.5 209.5,-449.5 209.5,-416 341,-416 341,-449.5"/>
<text xml:space="preserve" text-anchor="start" x="217.5" y="-436" font-family="Helvetica,sans-Serif" font-size="10.00">kynema_sgf::ascent</text>
<text xml:space="preserve" text-anchor="middle" x="275.25" y="-423.25" font-family="Helvetica,sans-Serif" font-size="10.00">_int::AscentPostProcess</text>
</a>
</g>
</g>
<!-- Node0&#45;&gt;Node1 -->
<g id="edge129_Node000000_Node000001" class="edge">
<title>Node0&#45;&gt;Node1</title>
<g id="a_edge129_Node000000_Node000001"><a xlink:title=" ">
<path fill="none" stroke="#63b8ff" d="M93.32,-265.06C110.65,-306.41 143.08,-369.77 190.75,-406.75 196.27,-411.03 202.5,-414.61 209.01,-417.61"/>
<polygon fill="#63b8ff" stroke="#63b8ff" points="96.62,-263.88 89.61,-255.94 90.14,-266.52 96.62,-263.88"/>
</a>
</g>
</g>
<!-- Node2 -->
<g id="Node000002" class="node">
<title>Node2</title>
<g id="a_Node000002"><a xlink:href="classkynema__sgf_1_1averaging_1_1_time_averaging.html" target="_top" xlink:title=" ">
<polygon fill="white" stroke="#666666" points="339.88,-397.5 210.62,-397.5 210.62,-364 339.88,-364 339.88,-397.5"/>
<text xml:space="preserve" text-anchor="start" x="218.62" y="-384" font-family="Helvetica,sans-Serif" font-size="10.00">kynema_sgf::averaging</text>
<text xml:space="preserve" text-anchor="middle" x="275.25" y="-371.25" font-family="Helvetica,sans-Serif" font-size="10.00">::TimeAveraging</text>
</a>
</g>
</g>
<!-- Node0&#45;&gt;Node2 -->
<g id="edge130_Node000000_Node000002" class="edge">
<title>Node0&#45;&gt;Node2</title>
<g id="a_edge130_Node000000_Node000002"><a xlink:title=" ">
<path fill="none" stroke="#63b8ff" d="M103.36,-263.99C123.66,-292.91 154.76,-331.18 190.75,-354.75 196.85,-358.74 203.59,-362.15 210.53,-365.06"/>
<polygon fill="#63b8ff" stroke="#63b8ff" points="106.3,-262.09 97.76,-255.82 100.53,-266.05 106.3,-262.09"/>
</a>
</g>
</g>
<!-- Node3 -->
<g id="Node000003" class="node">
<title>Node3</title>
<g id="a_Node000003"><a xlink:href="classkynema__sgf_1_1enstrophy_1_1_enstrophy.html" target="_top" xlink:title=" ">
<polygon fill="white" stroke="#666666" points="339.88,-345.5 210.62,-345.5 210.62,-312 339.88,-312 339.88,-345.5"/>
<text xml:space="preserve" text-anchor="start" x="218.62" y="-332" font-family="Helvetica,sans-Serif" font-size="10.00">kynema_sgf::enstrophy</text>
<text xml:space="preserve" text-anchor="middle" x="275.25" y="-319.25" font-family="Helvetica,sans-Serif" font-size="10.00">::Enstrophy</text>
</a>
</g>
</g>
<!-- Node0&#45;&gt;Node3 -->
<g id="edge131_Node000000_Node000003" class="edge">
<title>Node0&#45;&gt;Node3</title>
<g id="a_edge131_Node000000_Node000003"><a xlink:title=" ">
<path fill="none" stroke="#63b8ff" d="M124.33,-261.39C143.95,-275.75 167.63,-291.46 190.75,-302.75 197.44,-306.01 204.62,-308.98 211.87,-311.65"/>
<polygon fill="#63b8ff" stroke="#63b8ff" points="126.66,-258.76 116.54,-255.6 122.48,-264.38 126.66,-258.76"/>
</a>
</g>
</g>
<!-- Node4 -->
<g id="Node000004" class="node">
<title>Node4</title>
<g id="a_Node000004"><a xlink:href="classkynema__sgf_1_1field__norms_1_1_field_norms.html" target="_top" xlink:title=" ">
<polygon fill="white" stroke="#666666" points="344,-293.5 206.5,-293.5 206.5,-260 344,-260 344,-293.5"/>
<text xml:space="preserve" text-anchor="start" x="214.5" y="-280" font-family="Helvetica,sans-Serif" font-size="10.00">kynema_sgf::field_norms</text>
<text xml:space="preserve" text-anchor="middle" x="275.25" y="-267.25" font-family="Helvetica,sans-Serif" font-size="10.00">::FieldNorms</text>
</a>
</g>
</g>
<!-- Node0&#45;&gt;Node4 -->
<g id="edge132_Node000000_Node000004" class="edge">
<title>Node0&#45;&gt;Node4</title>
<g id="a_edge132_Node000000_Node000004"><a xlink:title=" ">
<path fill="none" stroke="#63b8ff" d="M166.24,-248.07C180.73,-251.92 195.53,-255.85 209.34,-259.52"/>
<polygon fill="#63b8ff" stroke="#63b8ff" points="167.25,-244.72 156.69,-245.54 165.46,-251.49 167.25,-244.72"/>
</a>
</g>
</g>
<!-- Node5 -->
<g id="Node000005" class="node">
<title>Node5</title>
<g id="a_Node000005"><a xlink:href="classkynema__sgf_1_1kinetic__energy_1_1_kinetic_energy.html" target="_top" xlink:title=" ">
<polygon fill="white" stroke="#666666" points="339.12,-241.5 211.38,-241.5 211.38,-208 339.12,-208 339.12,-241.5"/>
<text xml:space="preserve" text-anchor="start" x="219.38" y="-228" font-family="Helvetica,sans-Serif" font-size="10.00">kynema_sgf::kinetic</text>
<text xml:space="preserve" text-anchor="middle" x="275.25" y="-215.25" font-family="Helvetica,sans-Serif" font-size="10.00">_energy::KineticEnergy</text>
</a>
</g>
</g>
<!-- Node0&#45;&gt;Node5 -->
<g id="edge133_Node000000_Node000005" class="edge">
<title>Node0&#45;&gt;Node5</title>
<g id="a_edge133_Node000000_Node000005"><a xlink:title=" ">
<path fill="none" stroke="#63b8ff" d="M166.57,-224.75C181.51,-224.75 196.75,-224.75 210.89,-224.75"/>
<polygon fill="#63b8ff" stroke="#63b8ff" points="166.74,-221.25 156.74,-224.75 166.74,-228.25 166.74,-221.25"/>
</a>
</g>
</g>
<!-- Node6 -->
<g id="Node000006" class="node">
<title>Node6</title>
<g id="a_Node000006"><a xlink:href="classkynema__sgf_1_1rans__convergence_1_1_r_a_n_s_convergence.html" target="_top" xlink:title=" ">
<polygon fill="white" stroke="#666666" points="359.75,-189.5 190.75,-189.5 190.75,-156 359.75,-156 359.75,-189.5"/>
<text xml:space="preserve" text-anchor="start" x="198.75" y="-176" font-family="Helvetica,sans-Serif" font-size="10.00">kynema_sgf::rans_convergence</text>
<text xml:space="preserve" text-anchor="middle" x="275.25" y="-163.25" font-family="Helvetica,sans-Serif" font-size="10.00">::RANSConvergence</text>
</a>
</g>
</g>
<!-- Node0&#45;&gt;Node6 -->
<g id="edge134_Node000000_Node000006" class="edge">
<title>Node0&#45;&gt;Node6</title>
<g id="a_edge134_Node000000_Node000006"><a xlink:title=" ">
<path fill="none" stroke="#63b8ff" d="M166.24,-201.43C180.73,-197.58 195.53,-193.65 209.34,-189.98"/>
<polygon fill="#63b8ff" stroke="#63b8ff" points="165.46,-198.01 156.69,-203.96 167.25,-204.78 165.46,-198.01"/>
</a>
</g>
</g>
<!-- Node7 -->
<g id="Node000007" class="node">
<title>Node7</title>
<g id="a_Node000007"><a xlink:href="classkynema__sgf_1_1sampling_1_1_sampling.html" target="_top" xlink:title=" ">
<polygon fill="white" stroke="#666666" points="338,-137.5 212.5,-137.5 212.5,-104 338,-104 338,-137.5"/>
<text xml:space="preserve" text-anchor="start" x="220.5" y="-124" font-family="Helvetica,sans-Serif" font-size="10.00">kynema_sgf::sampling</text>
<text xml:space="preserve" text-anchor="middle" x="275.25" y="-111.25" font-family="Helvetica,sans-Serif" font-size="10.00">::Sampling</text>
</a>
</g>
</g>
<!-- Node0&#45;&gt;Node7 -->
<g id="edge135_Node000000_Node000007" class="edge">
<title>Node0&#45;&gt;Node7</title>
<g id="a_edge135_Node000000_Node000007"><a xlink:title=" ">
<path fill="none" stroke="#63b8ff" d="M124.33,-188.11C143.95,-173.75 167.63,-158.04 190.75,-146.75 197.57,-143.42 204.91,-140.4 212.31,-137.69"/>
<polygon fill="#63b8ff" stroke="#63b8ff" points="122.48,-185.12 116.54,-193.9 126.66,-190.74 122.48,-185.12"/>
</a>
</g>
</g>
<!-- Node8 -->
<g id="Node000008" class="node">
<title>Node8</title>
<g id="a_Node000008"><a xlink:href="classkynema__sgf_1_1subvolume_1_1_subvolume.html" target="_top" xlink:title=" ">
<polygon fill="white" stroke="#666666" points="342.5,-85.5 208,-85.5 208,-52 342.5,-52 342.5,-85.5"/>
<text xml:space="preserve" text-anchor="start" x="216" y="-72" font-family="Helvetica,sans-Serif" font-size="10.00">kynema_sgf::subvolume</text>
<text xml:space="preserve" text-anchor="middle" x="275.25" y="-59.25" font-family="Helvetica,sans-Serif" font-size="10.00">::Subvolume</text>
</a>
</g>
</g>
<!-- Node0&#45;&gt;Node8 -->
<g id="edge136_Node000000_Node000008" class="edge">
<title>Node0&#45;&gt;Node8</title>
<g id="a_edge136_Node000000_Node000008"><a xlink:title=" ">
<path fill="none" stroke="#63b8ff" d="M103.36,-185.51C123.66,-156.59 154.76,-118.32 190.75,-94.75 195.96,-91.34 201.64,-88.35 207.51,-85.75"/>
<polygon fill="#63b8ff" stroke="#63b8ff" points="100.53,-183.45 97.76,-193.68 106.3,-187.41 100.53,-183.45"/>
</a>
</g>
</g>
<!-- Node9 -->
<g id="Node000009" class="node">
<title>Node9</title>
<g id="a_Node000009"><a xlink:href="classkynema__sgf_1_1wave__energy_1_1_wave_energy.html" target="_top" xlink:title=" ">
<polygon fill="white" stroke="#666666" points="348.12,-33.5 202.38,-33.5 202.38,0 348.12,0 348.12,-33.5"/>
<text xml:space="preserve" text-anchor="start" x="210.38" y="-20" font-family="Helvetica,sans-Serif" font-size="10.00">kynema_sgf::wave_energy</text>
<text xml:space="preserve" text-anchor="middle" x="275.25" y="-7.25" font-family="Helvetica,sans-Serif" font-size="10.00">::WaveEnergy</text>
</a>
</g>
</g>
<!-- Node0&#45;&gt;Node9 -->
<g id="edge137_Node000000_Node000009" class="edge">
<title>Node0&#45;&gt;Node9</title>
<g id="a_edge137_Node000000_Node000009"><a xlink:title=" ">
<path fill="none" stroke="#63b8ff" d="M93.32,-184.44C110.65,-143.09 143.08,-79.73 190.75,-42.75 195.07,-39.4 199.82,-36.48 204.81,-33.93"/>
<polygon fill="#63b8ff" stroke="#63b8ff" points="90.14,-182.98 89.61,-193.56 96.62,-185.62 90.14,-182.98"/>
</a>
</g>
</g>
</g>
</svg>
